<svg width="24" height="18" viewBox="0 0 24 18" fill="none" xmlns="http://www.w3.org/2000/svg">
<path d="M20.4523 2.98994C17.7021 0.931942 15.0672 0.989782 15.0672 0.989782L14.7979 1.29746C18.0674 2.27834 19.5869 3.72074 19.5869 3.72074C14.909 1.1453 8.95078 1.16378 4.08526 3.72074C4.08526 3.72074 5.6623 2.2013 9.1243 1.22042L8.93207 0.989542C8.93207 0.989542 6.3163 0.931942 3.54694 2.9897C3.54694 2.9897 0.777344 7.9709 0.777344 14.1063C0.777344 14.1063 2.39302 16.8759 6.64342 17.0105C6.64342 17.0105 7.35502 16.1643 7.93198 15.4335C5.4895 14.7027 4.56622 13.1832 4.56622 13.1832C6.10078 14.1435 7.65238 14.7444 9.58606 15.1258C12.732 15.7733 16.6452 15.1075 19.5679 13.1832C19.5679 13.1832 18.6062 14.7411 16.0867 15.4527C16.6637 16.1643 17.3561 16.9913 17.3561 16.9913C21.6065 16.8567 23.2219 14.0871 23.2219 14.1065C23.2217 7.97114 20.4523 2.98994 20.4523 2.98994ZM8.4127 12.3178C7.33558 12.3178 6.45094 11.3753 6.45094 10.2022C6.52966 7.3925 10.3154 7.40114 10.3745 10.2022C10.3745 11.3753 9.50879 12.3178 8.4127 12.3178ZM15.4325 12.3178C14.3553 12.3178 13.4707 11.3753 13.4707 10.2022C13.5571 7.39802 17.2956 7.39682 17.3942 10.2022C17.3942 11.3753 16.5288 12.3178 15.4325 12.3178Z" fill="#FBFCFC"/>
</svg>
